<mxfile host="app.diagrams.net" modified="2022-05-03T13:35:10.415Z" agent="5.0 (Windows NT 10.0; Win64; x64) AppleWebKit/537.36 (KHTML, like Gecko) Chrome/101.0.4951.41 Safari/537.36 Edg/101.0.1210.32" etag="Afz8Yh6Bbln8xVtYSrxV" version="17.5.0" type="github">
  <diagram id="PrH0q5zAXd5BLeV50fAt" name="Page-1">
    <mxGraphModel dx="1038" dy="579" grid="1" gridSize="10" guides="1" tooltips="1" connect="1" arrows="1" fold="1" page="1" pageScale="1" pageWidth="850" pageHeight="1100" math="0" shadow="0">
      <root>
        <mxCell id="0" />
        <mxCell id="1" parent="0" />
        <mxCell id="mhKlU79J4ywCWcMV7tu8-3" value="" style="edgeStyle=orthogonalEdgeStyle;rounded=0;orthogonalLoop=1;jettySize=auto;html=1;" edge="1" parent="1" source="mhKlU79J4ywCWcMV7tu8-1" target="mhKlU79J4ywCWcMV7tu8-2">
          <mxGeometry relative="1" as="geometry" />
        </mxCell>
        <mxCell id="mhKlU79J4ywCWcMV7tu8-1" value="start" style="rounded=1;whiteSpace=wrap;html=1;" vertex="1" parent="1">
          <mxGeometry x="80" y="30" width="90" height="20" as="geometry" />
        </mxCell>
        <mxCell id="mhKlU79J4ywCWcMV7tu8-5" value="" style="edgeStyle=orthogonalEdgeStyle;rounded=0;orthogonalLoop=1;jettySize=auto;html=1;fontSize=9;" edge="1" parent="1" source="mhKlU79J4ywCWcMV7tu8-2" target="mhKlU79J4ywCWcMV7tu8-4">
          <mxGeometry relative="1" as="geometry" />
        </mxCell>
        <mxCell id="mhKlU79J4ywCWcMV7tu8-2" value="&lt;font style=&quot;font-size: 9px&quot;&gt;IF target agent type not spell and locked attack rng empty&lt;/font&gt;" style="rhombus;whiteSpace=wrap;html=1;" vertex="1" parent="1">
          <mxGeometry x="85" y="110" width="80" height="80" as="geometry" />
        </mxCell>
        <mxCell id="mhKlU79J4ywCWcMV7tu8-7" value="" style="edgeStyle=orthogonalEdgeStyle;rounded=0;orthogonalLoop=1;jettySize=auto;html=1;fontSize=9;" edge="1" parent="1" source="mhKlU79J4ywCWcMV7tu8-4" target="mhKlU79J4ywCWcMV7tu8-6">
          <mxGeometry relative="1" as="geometry" />
        </mxCell>
        <mxCell id="mhKlU79J4ywCWcMV7tu8-4" value="IF truck has identify target and attacked by frz" style="rhombus;whiteSpace=wrap;html=1;" vertex="1" parent="1">
          <mxGeometry x="85" y="240" width="80" height="80" as="geometry" />
        </mxCell>
        <mxCell id="mhKlU79J4ywCWcMV7tu8-9" value="" style="edgeStyle=orthogonalEdgeStyle;rounded=0;orthogonalLoop=1;jettySize=auto;html=1;fontSize=9;" edge="1" parent="1" source="mhKlU79J4ywCWcMV7tu8-6" target="mhKlU79J4ywCWcMV7tu8-8">
          <mxGeometry relative="1" as="geometry" />
        </mxCell>
        <mxCell id="mhKlU79J4ywCWcMV7tu8-6" value="call&amp;nbsp;identifyTargetAgent" style="rounded=1;whiteSpace=wrap;html=1;fillColor=#f8cecc;gradientColor=#ea6b66;strokeColor=#b85450;" vertex="1" parent="1">
          <mxGeometry x="65" y="360" width="120" height="60" as="geometry" />
        </mxCell>
        <mxCell id="mhKlU79J4ywCWcMV7tu8-11" value="" style="edgeStyle=orthogonalEdgeStyle;rounded=0;orthogonalLoop=1;jettySize=auto;html=1;fontSize=12;" edge="1" parent="1" source="mhKlU79J4ywCWcMV7tu8-8" target="mhKlU79J4ywCWcMV7tu8-10">
          <mxGeometry relative="1" as="geometry">
            <Array as="points">
              <mxPoint x="220" y="500" />
              <mxPoint x="220" y="80" />
            </Array>
          </mxGeometry>
        </mxCell>
        <mxCell id="mhKlU79J4ywCWcMV7tu8-8" value="&lt;font style=&quot;font-size: 12px&quot;&gt;IF locked attack range target not empty&lt;/font&gt;" style="rhombus;whiteSpace=wrap;html=1;fontSize=9;" vertex="1" parent="1">
          <mxGeometry x="85" y="460" width="80" height="80" as="geometry" />
        </mxCell>
        <mxCell id="mhKlU79J4ywCWcMV7tu8-13" value="yes" style="edgeStyle=orthogonalEdgeStyle;rounded=0;orthogonalLoop=1;jettySize=auto;html=1;fontSize=12;" edge="1" parent="1" source="mhKlU79J4ywCWcMV7tu8-10" target="mhKlU79J4ywCWcMV7tu8-12">
          <mxGeometry relative="1" as="geometry">
            <Array as="points">
              <mxPoint x="290" y="130" />
              <mxPoint x="290" y="130" />
            </Array>
          </mxGeometry>
        </mxCell>
        <mxCell id="mhKlU79J4ywCWcMV7tu8-17" value="NO" style="edgeStyle=orthogonalEdgeStyle;rounded=0;orthogonalLoop=1;jettySize=auto;html=1;fontSize=12;" edge="1" parent="1" source="mhKlU79J4ywCWcMV7tu8-10" target="mhKlU79J4ywCWcMV7tu8-16">
          <mxGeometry relative="1" as="geometry" />
        </mxCell>
        <mxCell id="mhKlU79J4ywCWcMV7tu8-10" value="&lt;font style=&quot;font-size: 12px&quot;&gt;IF&amp;nbsp;isfirstAttack&amp;nbsp;&lt;br&gt;false&lt;br&gt;&lt;/font&gt;" style="rhombus;whiteSpace=wrap;html=1;fontSize=9;" vertex="1" parent="1">
          <mxGeometry x="250" y="40" width="80" height="80" as="geometry" />
        </mxCell>
        <mxCell id="mhKlU79J4ywCWcMV7tu8-15" value="" style="edgeStyle=orthogonalEdgeStyle;rounded=0;orthogonalLoop=1;jettySize=auto;html=1;fontSize=12;" edge="1" parent="1" source="mhKlU79J4ywCWcMV7tu8-12" target="mhKlU79J4ywCWcMV7tu8-14">
          <mxGeometry relative="1" as="geometry" />
        </mxCell>
        <mxCell id="mhKlU79J4ywCWcMV7tu8-12" value="set&amp;nbsp;isfirstAttack as true&lt;br&gt;construct the chef npc trigger" style="whiteSpace=wrap;html=1;fontSize=9;" vertex="1" parent="1">
          <mxGeometry x="230" y="160" width="120" height="60" as="geometry" />
        </mxCell>
        <mxCell id="mhKlU79J4ywCWcMV7tu8-14" value="call&amp;nbsp;createAttackNpc" style="rounded=1;whiteSpace=wrap;html=1;fillColor=#f8cecc;gradientColor=#ea6b66;strokeColor=#b85450;" vertex="1" parent="1">
          <mxGeometry x="230" y="270" width="120" height="60" as="geometry" />
        </mxCell>
        <mxCell id="mhKlU79J4ywCWcMV7tu8-19" value="" style="edgeStyle=orthogonalEdgeStyle;rounded=0;orthogonalLoop=1;jettySize=auto;html=1;fontSize=12;" edge="1" parent="1" source="mhKlU79J4ywCWcMV7tu8-16" target="mhKlU79J4ywCWcMV7tu8-18">
          <mxGeometry relative="1" as="geometry" />
        </mxCell>
        <mxCell id="mhKlU79J4ywCWcMV7tu8-16" value="&lt;font style=&quot;font-size: 12px&quot;&gt;ELSE IF chef already in arena&lt;br&gt;&lt;/font&gt;" style="rhombus;whiteSpace=wrap;html=1;fontSize=9;" vertex="1" parent="1">
          <mxGeometry x="410" y="40" width="80" height="80" as="geometry" />
        </mxCell>
        <mxCell id="mhKlU79J4ywCWcMV7tu8-21" value="" style="edgeStyle=orthogonalEdgeStyle;rounded=0;orthogonalLoop=1;jettySize=auto;html=1;fontSize=12;" edge="1" parent="1" source="mhKlU79J4ywCWcMV7tu8-18" target="mhKlU79J4ywCWcMV7tu8-20">
          <mxGeometry relative="1" as="geometry" />
        </mxCell>
        <mxCell id="mhKlU79J4ywCWcMV7tu8-18" value="set stop search,locked sight rng to npc" style="whiteSpace=wrap;html=1;fontSize=9;" vertex="1" parent="1">
          <mxGeometry x="390" y="170" width="120" height="60" as="geometry" />
        </mxCell>
        <mxCell id="mhKlU79J4ywCWcMV7tu8-23" value="" style="edgeStyle=orthogonalEdgeStyle;rounded=0;orthogonalLoop=1;jettySize=auto;html=1;fontSize=12;" edge="1" parent="1" source="mhKlU79J4ywCWcMV7tu8-20" target="mhKlU79J4ywCWcMV7tu8-22">
          <mxGeometry relative="1" as="geometry" />
        </mxCell>
        <mxCell id="mhKlU79J4ywCWcMV7tu8-20" value="call&amp;nbsp;getAgentPosition&amp;nbsp; for get the target position" style="rounded=1;whiteSpace=wrap;html=1;fillColor=#ffcc99;strokeColor=#36393d;" vertex="1" parent="1">
          <mxGeometry x="390" y="270" width="120" height="60" as="geometry" />
        </mxCell>
        <mxCell id="mhKlU79J4ywCWcMV7tu8-25" value="" style="edgeStyle=orthogonalEdgeStyle;rounded=0;orthogonalLoop=1;jettySize=auto;html=1;fontSize=12;" edge="1" parent="1" source="mhKlU79J4ywCWcMV7tu8-22" target="mhKlU79J4ywCWcMV7tu8-24">
          <mxGeometry relative="1" as="geometry" />
        </mxCell>
        <mxCell id="mhKlU79J4ywCWcMV7tu8-22" value="set the target point to npc" style="rounded=0;whiteSpace=wrap;html=1;fontSize=12;" vertex="1" parent="1">
          <mxGeometry x="390" y="370" width="120" height="60" as="geometry" />
        </mxCell>
        <mxCell id="mhKlU79J4ywCWcMV7tu8-24" value="end" style="ellipse;whiteSpace=wrap;html=1;rounded=0;" vertex="1" parent="1">
          <mxGeometry x="390" y="460" width="120" height="60" as="geometry" />
        </mxCell>
      </root>
    </mxGraphModel>
  </diagram>
</mxfile>
